<svg width="185" height="184" viewBox="0 0 185 184" fill="none" xmlns="http://www.w3.org/2000/svg">
<g filter="url(#filter0_d)">
<path d="M33.8014 79.6926C25.8014 80.8926 25.3014 93.6926 25.3014 93.6926C25.3014 93.6926 24.0014 111.393 26.8014 114.193C30.3014 117.693 40.8014 117.193 40.8014 117.193C40.8014 117.193 67.3014 116.193 71.3014 115.193C75.3014 114.193 77.6439 110.791 81.5 108.888C86.973 106.187 89.2515 106.999 95.3014 106.193C115.256 103.534 144.301 100.193 146.301 98.6926C148.301 97.1926 149.5 79.3879 150 78.3879C150.5 77.3879 158.301 80.3879 158.301 74.1926C158.301 69.9206 160.5 64.8875 155.5 63.3875C150.5 61.8875 102.301 65.1926 88.3014 65.6926C74.3014 66.1926 73.3014 72.6926 67.3014 75.1926C61.3014 77.6926 43.8014 78.1926 33.8014 79.6926Z" fill="white"/>
</g>
<path d="M41.0599 112.38C37.2831 112.653 34.6131 111.964 33.0499 110.312C31.9773 109.16 31.364 107.52 31.2101 105.392C31.1389 104.408 31.1673 103.323 31.2955 102.138L32.1146 94.0574C32.849 86.839 36.9531 82.9594 44.4269 82.4187C47.5121 82.1955 49.9008 82.6911 51.5928 83.9055C53.2829 85.0933 54.2107 86.8309 54.3762 89.1183C54.4436 90.0492 54.3789 91.003 54.1822 91.9797C54.0121 92.9546 53.8246 93.69 53.6199 94.1861L53.2729 94.933L46.2114 95.4439C46.8336 94.4364 47.0995 93.3076 47.0091 92.0575C46.8359 89.6638 45.7519 88.5391 43.7572 88.6834C41.0708 88.8777 39.5743 90.55 39.2675 93.7004L38.4651 101.459C38.3841 102.186 38.3686 102.896 38.4186 103.587C38.5514 105.423 39.695 106.262 41.8493 106.106C44.0303 105.949 45.3478 104.757 45.8017 102.532L42.5303 102.769L43.0078 98.2825L53.5802 97.5176L53.1901 100.995L53.0743 102.166C52.4055 108.444 48.4008 111.849 41.0599 112.38Z" fill="#6886C5"/>
<path d="M80.7894 90.2572L79.7954 90.1474L79.7945 90.1563L80.7894 90.2572ZM79.9703 98.3373L78.9754 98.2365L78.9752 98.2387L79.9703 98.3373ZM76.4157 106.856L77.1114 107.574L76.4157 106.856ZM59.3802 108.088L58.6661 108.788L58.6673 108.79L59.3802 108.088ZM57.5489 99.9594L58.5427 100.071L58.5438 100.06L57.5489 99.9594ZM58.368 91.8792L57.3731 91.778L57.3731 91.7784L58.368 91.8792ZM71.379 102.648L70.6712 101.942L71.379 102.648ZM72.7775 98.6973L71.7828 98.5944L71.7823 98.5999L72.7775 98.6973ZM73.5798 90.9392L74.5745 91.042L74.5759 91.0289L74.5769 91.0158L73.5798 90.9392ZM70.0904 86.4994L70.0182 85.502L70.0085 85.5027L69.9989 85.5036L70.0904 86.4994ZM65.5209 91.5222L66.5156 91.625L66.5159 91.622L65.5209 91.5222ZM64.7186 99.2803L63.7239 99.1774L63.723 99.1857L63.7223 99.194L64.7186 99.2803ZM70.7524 81.2379C73.847 81.014 76.0288 81.496 77.4582 82.5016C78.8469 83.4785 79.6922 85.0695 79.8664 87.4765L81.8611 87.3322C81.6562 84.4996 80.6147 82.2768 78.609 80.8658C76.6439 79.4834 73.9235 79.0032 70.6081 79.2431L70.7524 81.2379ZM79.8664 87.4765C79.9248 88.2844 79.9029 89.1737 79.7954 90.1474L81.7834 90.3669C81.902 89.2923 81.9297 88.2798 81.8611 87.3322L79.8664 87.4765ZM79.7945 90.1563L78.9754 98.2365L80.9652 98.4382L81.7843 90.358L79.7945 90.1563ZM78.9752 98.2387C78.6194 101.83 77.4972 104.416 75.72 106.138L77.1114 107.574C79.3319 105.424 80.5794 102.331 80.9654 98.4359L78.9752 98.2387ZM75.72 106.138C73.9451 107.857 71.2733 108.912 67.5604 109.181L67.7047 111.176C71.7049 110.886 74.8885 109.727 77.1114 107.574L75.72 106.138ZM67.5604 109.181C63.8114 109.452 61.4308 108.747 60.0931 107.387L58.6673 108.79C60.6195 110.774 63.7404 111.463 67.7047 111.176L67.5604 109.181ZM60.0943 107.388C59.1838 106.46 58.5998 105.062 58.4551 103.062L56.4603 103.206C56.6274 105.515 57.3251 107.42 58.6661 108.788L60.0943 107.388ZM58.4551 103.062C58.3911 102.177 58.418 101.181 58.5426 100.071L56.5551 99.8479C56.4196 101.055 56.3858 102.176 56.4603 103.206L58.4551 103.062ZM58.5438 100.06L59.3629 91.9801L57.3731 91.7784L56.554 99.8585L58.5438 100.06ZM59.3629 91.9804C59.7129 88.5403 60.851 86.0149 62.6838 84.2824C64.5204 82.5462 67.17 81.4971 70.7524 81.2379L70.6081 79.2431C66.7168 79.5246 63.5774 80.6855 61.3099 82.829C59.0386 84.976 57.7575 87.9997 57.3731 91.778L59.3629 91.9804ZM68.3345 104.914C69.8401 104.805 71.1283 104.315 72.0867 103.355L70.6712 101.942C70.1339 102.48 69.3443 102.836 68.1902 102.919L68.3345 104.914ZM72.0867 103.355C73.0845 102.355 73.5816 100.748 73.7728 98.7947L71.7823 98.5999C71.6045 100.416 71.1692 101.443 70.6712 101.942L72.0867 103.355ZM73.7722 98.8001L74.5745 91.042L72.5851 90.8363L71.7828 98.5944L73.7722 98.8001ZM74.5769 91.0158C74.621 90.4408 74.6281 89.9081 74.593 89.4221L72.5982 89.5664C72.6246 89.9315 72.6212 90.3621 72.5827 90.8626L74.5769 91.0158ZM74.593 89.4221C74.5037 88.1881 74.1101 87.1027 73.252 86.3695C72.3962 85.6383 71.2594 85.4122 70.0182 85.502L70.1625 87.4968C71.1023 87.4288 71.6401 87.6229 71.9528 87.89C72.2631 88.1551 72.5316 88.6461 72.5982 89.5664L74.593 89.4221ZM69.9989 85.5036C68.4382 85.647 67.1206 86.211 66.1565 87.2707C65.2052 88.3164 64.6947 89.7389 64.5259 91.4224L66.5159 91.622C66.6577 90.2083 67.0641 89.2451 67.6359 88.6165C68.1951 88.002 69.0069 87.6031 70.1819 87.4952L69.9989 85.5036ZM64.5262 91.4193L63.7239 99.1774L65.7133 99.3832L66.5156 91.625L64.5262 91.4193ZM63.7223 99.194C63.6592 99.9226 63.6562 100.671 63.7117 101.439L65.7065 101.294C65.6581 100.625 65.6614 99.9832 65.7148 99.3666L63.7223 99.194ZM63.7117 101.439C63.7939 102.576 64.2175 103.568 65.1153 104.213C65.9763 104.831 67.1035 105.003 68.3345 104.914L68.1902 102.919C67.1871 102.992 66.605 102.82 66.2815 102.588C65.9949 102.382 65.7589 102.019 65.7065 101.294L63.7117 101.439Z" fill="#6886C5"/>
<path d="M97.1278 81.7616L96.1338 81.6518L96.1329 81.6607L97.1278 81.7616ZM96.3087 89.8417L95.3138 89.7409L95.3135 89.7431L96.3087 89.8417ZM92.7541 98.3604L93.4498 99.0787L92.7541 98.3604ZM75.7186 99.5928L75.0045 100.293L75.0057 100.294L75.7186 99.5928ZM73.8873 91.4638L74.8811 91.5753L74.8822 91.5646L73.8873 91.4638ZM74.7064 83.3836L73.7115 83.2824L73.7115 83.2828L74.7064 83.3836ZM87.7173 94.1529L87.0096 93.4464L87.7173 94.1529ZM89.1159 90.2017L88.1212 90.0988L88.1206 90.1043L89.1159 90.2017ZM89.9182 82.4436L90.9129 82.5464L90.9142 82.5333L90.9153 82.5201L89.9182 82.4436ZM86.4287 78.0038L86.3566 77.0064L86.3469 77.0071L86.3372 77.008L86.4287 78.0038ZM81.8592 83.0266L82.8539 83.1294L82.8543 83.1264L81.8592 83.0266ZM81.0569 90.7847L80.0623 90.6818L80.0614 90.6901L80.0607 90.6983L81.0569 90.7847ZM87.0908 72.7423C90.1854 72.5184 92.3671 73.0004 93.7966 74.006C95.1853 74.9829 96.0306 76.5739 96.2047 78.9809L98.1995 78.8366C97.9946 76.004 96.9531 73.7812 94.9473 72.3702C92.9823 70.9878 90.2619 70.5076 86.9465 70.7475L87.0908 72.7423ZM96.2047 78.9809C96.2632 79.7888 96.2413 80.6781 96.1338 81.6518L98.1217 81.8713C98.2404 80.7967 98.2681 79.7841 98.1995 78.8366L96.2047 78.9809ZM96.1329 81.6607L95.3138 89.7409L97.3036 89.9426L98.1227 81.8624L96.1329 81.6607ZM95.3135 89.7431C94.9578 93.334 93.8356 95.9208 92.0584 97.6421L93.4498 99.0787C95.6703 96.9281 96.9178 93.8359 97.3038 89.9403L95.3135 89.7431ZM92.0584 97.6421C90.2835 99.3611 87.6117 100.417 83.8987 100.685L84.0431 102.68C88.0433 102.391 91.2269 101.232 93.4498 99.0787L92.0584 97.6421ZM83.8987 100.685C80.1498 100.957 77.7692 100.252 76.4315 98.8916L75.0057 100.294C76.9579 102.279 80.0788 102.967 84.0431 102.68L83.8987 100.685ZM76.4327 98.8928C75.5221 97.9639 74.9382 96.5662 74.7935 94.5665L72.7987 94.7108C72.9658 97.0198 73.6634 98.9249 75.0045 100.293L76.4327 98.8928ZM74.7935 94.5665C74.7295 93.6816 74.7564 92.6859 74.881 91.5753L72.8935 91.3523C72.758 92.5598 72.7242 93.6807 72.7987 94.7108L74.7935 94.5665ZM74.8822 91.5646L75.7013 83.4845L73.7115 83.2828L72.8924 91.3629L74.8822 91.5646ZM75.7012 83.4848C76.0512 80.0447 77.1894 77.5193 79.0222 75.7868C80.8588 74.0506 83.5083 73.0014 87.0908 72.7423L86.9465 70.7475C83.0552 71.029 79.9158 72.1899 77.6483 74.3334C75.377 76.4804 74.0959 79.5041 73.7115 83.2824L75.7012 83.4848ZM84.6729 96.4185C86.1785 96.3095 87.4667 95.8195 88.4251 94.8593L87.0096 93.4464C86.4722 93.9848 85.6827 94.3402 84.5286 94.4237L84.6729 96.4185ZM88.4251 94.8593C89.4228 93.8598 89.92 92.2522 90.1111 90.2991L88.1206 90.1043C87.9428 91.9209 87.5076 92.9475 87.0096 93.4464L88.4251 94.8593ZM90.1106 90.3045L90.9129 82.5464L88.9235 82.3407L88.1212 90.0988L90.1106 90.3045ZM90.9153 82.5201C90.9594 81.9452 90.9665 81.4125 90.9314 80.9265L88.9366 81.0708C88.963 81.4359 88.9596 81.8665 88.9211 82.367L90.9153 82.5201ZM90.9314 80.9265C90.8421 79.6924 90.4485 78.6071 89.5904 77.8739C88.7346 77.1427 87.5978 76.9166 86.3566 77.0064L86.5009 79.0012C87.4407 78.9332 87.9785 79.1273 88.2912 79.3944C88.6014 79.6595 88.87 80.1505 88.9366 81.0708L90.9314 80.9265ZM86.3372 77.008C84.7765 77.1514 83.459 77.7154 82.4949 78.7751C81.5436 79.8208 81.0331 81.2433 80.8642 82.9268L82.8543 83.1264C82.9961 81.7127 83.4025 80.7495 83.9743 80.1209C84.5334 79.5064 85.3453 79.1075 86.5202 78.9996L86.3372 77.008ZM80.8646 82.9237L80.0623 90.6818L82.0516 90.8875L82.8539 83.1294L80.8646 82.9237ZM80.0607 90.6983C79.9975 91.427 79.9945 92.1755 80.0501 92.943L82.0448 92.7986C81.9965 92.1298 81.9998 91.4876 82.0532 90.871L80.0607 90.6983ZM80.0501 92.943C80.1323 94.0803 80.5558 95.0727 81.4537 95.7171C82.3146 96.335 83.4419 96.5075 84.6729 96.4185L84.5286 94.4237C83.5254 94.4962 82.9434 94.3245 82.6199 94.0923C82.3333 93.8866 82.0973 93.5232 82.0448 92.7986L80.0501 92.943Z" fill="#FFACB7"/>
<path d="M120.296 96.6142C118.322 98.5216 115.406 99.6148 111.55 99.8938C107.693 100.173 104.956 99.4752 103.337 97.801C102.185 96.6545 101.531 95.004 101.375 92.8496C101.306 91.8922 101.336 90.8339 101.466 89.6748L103.367 71.0491L110.548 70.5296L108.636 88.9957C108.577 89.6683 108.574 90.3637 108.626 91.0818C108.761 92.9436 109.945 93.7937 112.18 93.6321C113.509 93.5359 114.548 93.1131 115.296 92.3639C116.044 91.6146 116.51 90.2976 116.695 88.4127L118.607 69.9465L125.789 69.427L123.887 88.0527C123.492 91.8245 122.295 94.6783 120.296 96.6142ZM155.06 73.5658L145.245 74.2758L142.923 97.0627L135.702 97.5851L138.024 74.7982L128.17 75.5111L128.837 69.2065L155.727 67.2612L155.06 73.5658Z" fill="#FFACB7"/>
<defs>
<filter id="filter0_d" x="21" y="63" width="141.783" height="62.2172" filterUnits="userSpaceOnUse" color-interpolation-filters="sRGB">
<feFlood flood-opacity="0" result="BackgroundImageFix"/>
<feColorMatrix in="SourceAlpha" type="matrix" values="0 0 0 0 0 0 0 0 0 0 0 0 0 0 0 0 0 0 127 0"/>
<feOffset dy="4"/>
<feGaussianBlur stdDeviation="2"/>
<feColorMatrix type="matrix" values="0 0 0 0 0.772934 0 0 0 0 0.807203 0 0 0 0 0.879167 0 0 0 1 0"/>
<feBlend mode="normal" in2="BackgroundImageFix" result="effect1_dropShadow"/>
<feBlend mode="normal" in="SourceGraphic" in2="effect1_dropShadow" result="shape"/>
</filter>
</defs>
</svg>
